<?xml version="1.0" encoding="iso-8859-1"?>
<!-- Generator: Adobe Illustrator 19.0.0, SVG Export Plug-In . SVG Version: 6.00 Build 0)  -->
<svg xmlns="http://www.w3.org/2000/svg" xmlns:xlink="http://www.w3.org/1999/xlink" version="1.1" id="Layer_1" x="0px" y="0px" viewBox="0 0 469.333 469.333" style="enable-background:new 0 0 469.333 469.333;" xml:space="preserve" width="512px" height="512px">
<g>
	<g>
		<path d="M85.333,85.333v384h256l128-128v-256H85.333z M341.333,408.96v-67.627h67.627L341.333,408.96z M426.667,298.667h-128v128    H128V128h298.667V298.667z" fill="#FFFFFF"/>
	</g>
</g>
<g>
	<g>
		<rect x="170.667" y="192" width="42.667" height="42.667" fill="#FFFFFF"/>
	</g>
</g>
<g>
	<g>
		<rect x="256" y="192" width="106.667" height="42.667" fill="#FFFFFF"/>
	</g>
</g>
<g>
	<g>
		<rect x="170.667" y="277.333" width="85.333" height="42.667" fill="#FFFFFF"/>
	</g>
</g>
<g>
	<g>
		<polygon points="0,0 0,299.307 0,341.333 42.667,341.333 85.333,341.333 85.333,299.307 42.667,299.307 42.667,42.667     277.333,42.667 277.333,85.333 320,85.333 320,0   " fill="#FFFFFF"/>
	</g>
</g>
<g>
</g>
<g>
</g>
<g>
</g>
<g>
</g>
<g>
</g>
<g>
</g>
<g>
</g>
<g>
</g>
<g>
</g>
<g>
</g>
<g>
</g>
<g>
</g>
<g>
</g>
<g>
</g>
<g>
</g>
</svg>
