<?xml version="1.0" encoding="iso-8859-1"?>
<!-- Generator: Adobe Illustrator 19.0.0, SVG Export Plug-In . SVG Version: 6.00 Build 0)  -->
<svg xmlns="http://www.w3.org/2000/svg" xmlns:xlink="http://www.w3.org/1999/xlink" version="1.1" id="Layer_1" x="0px" y="0px" viewBox="0 0 490.1 490.1" style="enable-background:new 0 0 490.1 490.1;" xml:space="preserve" width="512px" height="512px">
<g>
	<path d="M469.8,55.2H20.2C9.5,55.2,0,63.6,0,75.3v339.4c0,10.6,8.5,20.2,20.2,20.2h449.7c11.7,0,20.2-9.5,20.2-20.2V75.3   C490,64.7,481.5,55.2,469.8,55.2z M40.3,124.1l118.8,118.8L40.3,361.7V124.1z M245,271.5L70,96.5h350L245,271.5z M187.7,271.5   l42.4,42.4c8.9,8.9,20.9,8.8,29.7,0l41.9-41.9l121.4,121.4H65.8L187.7,271.5z M330.4,243.4l119.3-119.3v238.6L330.4,243.4z" fill="#FFFFFF"/>
</g>
<g>
</g>
<g>
</g>
<g>
</g>
<g>
</g>
<g>
</g>
<g>
</g>
<g>
</g>
<g>
</g>
<g>
</g>
<g>
</g>
<g>
</g>
<g>
</g>
<g>
</g>
<g>
</g>
<g>
</g>
</svg>
